<svg width="185" height="14" viewBox="0 0 185 14" fill="none" xmlns="http://www.w3.org/2000/svg">
<path d="M5.914 13.216C5.23 13.216 4.564 13.15 3.916 13.018C3.28 12.898 2.698 12.73 2.17 12.514C1.654 12.298 1.216 12.064 0.856 11.812L2.044 9.562C2.44 9.838 2.86 10.078 3.304 10.282C3.76 10.474 4.234 10.624 4.726 10.732C5.218 10.828 5.71 10.876 6.202 10.876C6.742 10.876 7.204 10.816 7.588 10.696C7.984 10.576 8.284 10.408 8.488 10.192C8.704 9.976 8.812 9.712 8.812 9.4C8.812 9.112 8.698 8.878 8.47 8.698C8.242 8.518 7.942 8.368 7.57 8.248C7.21 8.116 6.808 7.99 6.364 7.87C5.92 7.75 5.47 7.612 5.014 7.456C4.57 7.288 4.162 7.084 3.79 6.844C3.43 6.592 3.136 6.274 2.908 5.89C2.68 5.506 2.566 5.026 2.566 4.45C2.566 3.586 2.8 2.836 3.268 2.2C3.748 1.564 4.42 1.072 5.284 0.723999C6.148 0.364 7.162 0.184 8.326 0.184C9.178 0.184 9.982 0.28 10.738 0.471999C11.494 0.651999 12.142 0.915999 12.682 1.264L11.584 3.496C11.104 3.172 10.57 2.932 9.982 2.776C9.394 2.608 8.788 2.524 8.164 2.524C7.6 2.524 7.114 2.59 6.706 2.722C6.31 2.854 6.004 3.04 5.788 3.28C5.584 3.508 5.482 3.772 5.482 4.072C5.482 4.372 5.59 4.618 5.806 4.81C6.034 4.99 6.334 5.146 6.706 5.278C7.078 5.398 7.486 5.518 7.93 5.638C8.374 5.758 8.818 5.896 9.262 6.052C9.706 6.208 10.114 6.406 10.486 6.646C10.858 6.886 11.158 7.192 11.386 7.564C11.614 7.924 11.728 8.38 11.728 8.932C11.728 9.796 11.488 10.552 11.008 11.2C10.528 11.836 9.85 12.334 8.974 12.694C8.11 13.042 7.09 13.216 5.914 13.216ZM12.4605 13L14.9805 0.399999H17.9145L15.3945 13H12.4605ZM17.8268 13L20.3468 0.399999H22.7228L26.3048 9.328L25.0448 9.31L32.0288 0.399999H34.5308L32.0288 13H29.2928L30.9668 4.558H31.5248L25.9628 11.668H24.6668L21.6968 4.54L22.2368 4.594L20.5628 13H17.8268ZM34.4782 13L36.9982 0.399999H42.0922C43.6642 0.399999 44.8762 0.747999 45.7282 1.444C46.5922 2.128 47.0242 3.088 47.0242 4.324C47.0242 5.38 46.7782 6.304 46.2862 7.096C45.7942 7.876 45.0862 8.476 44.1622 8.896C43.2502 9.316 42.1642 9.526 40.9042 9.526H36.8182L38.3662 8.194L37.4122 13H34.4782ZM38.2942 8.536L37.2682 7.15H41.0302C41.9902 7.15 42.7342 6.934 43.2622 6.502C43.8022 6.058 44.0722 5.416 44.0722 4.576C44.0722 3.964 43.8682 3.514 43.4602 3.226C43.0522 2.926 42.4762 2.776 41.7322 2.776H38.1862L39.7342 1.354L38.2942 8.536ZM46.946 13L49.466 0.399999H52.4L50.348 10.624H56.666L56.18 13H46.946ZM59.1005 13L60.1265 7.816L60.4505 9.652L56.7425 0.399999H59.6585L62.4845 7.474L60.7205 7.492L66.4265 0.399999H69.4325L62.0525 9.67L63.0425 7.816L62.0165 13H59.1005ZM79.1522 13.216C78.1802 13.216 77.2742 13.06 76.4342 12.748C75.6062 12.424 74.8862 11.968 74.2742 11.38C73.6622 10.792 73.1822 10.102 72.8342 9.31C72.4982 8.518 72.3302 7.648 72.3302 6.7C72.3302 5.752 72.4982 4.882 72.8342 4.09C73.1822 3.298 73.6622 2.608 74.2742 2.02C74.8982 1.432 75.6242 0.981999 76.4522 0.669999C77.2802 0.345999 78.1862 0.184 79.1702 0.184C80.2622 0.184 81.2462 0.376 82.1222 0.76C83.0102 1.132 83.7542 1.684 84.3542 2.416L82.4822 4.144C82.0502 3.652 81.5702 3.286 81.0422 3.046C80.5142 2.794 79.9382 2.668 79.3142 2.668C78.7262 2.668 78.1862 2.764 77.6942 2.956C77.2022 3.148 76.7762 3.424 76.4162 3.784C76.0562 4.144 75.7742 4.57 75.5702 5.062C75.3782 5.554 75.2822 6.1 75.2822 6.7C75.2822 7.3 75.3782 7.846 75.5702 8.338C75.7742 8.83 76.0562 9.256 76.4162 9.616C76.7762 9.976 77.2022 10.252 77.6942 10.444C78.1862 10.636 78.7262 10.732 79.3142 10.732C79.9382 10.732 80.5142 10.612 81.0422 10.372C81.5702 10.12 82.0502 9.742 82.4822 9.238L84.3542 10.966C83.7542 11.698 83.0102 12.256 82.1222 12.64C81.2462 13.024 80.2562 13.216 79.1522 13.216ZM94.4234 0.399999H97.3394V13H94.4234V0.399999ZM88.6994 13H85.7834V0.399999H88.6994V13ZM94.6394 7.834H88.4834V5.368H94.6394V7.834ZM105.9 13.216C104.904 13.216 103.98 13.054 103.128 12.73C102.288 12.406 101.556 11.95 100.932 11.362C100.32 10.774 99.8405 10.084 99.4925 9.292C99.1565 8.5 98.9885 7.636 98.9885 6.7C98.9885 5.764 99.1565 4.9 99.4925 4.108C99.8405 3.316 100.326 2.626 100.95 2.038C101.574 1.45 102.306 0.993999 103.146 0.669999C103.986 0.345999 104.898 0.184 105.882 0.184C106.878 0.184 107.79 0.345999 108.618 0.669999C109.458 0.993999 110.184 1.45 110.796 2.038C111.42 2.626 111.906 3.316 112.254 4.108C112.602 4.888 112.776 5.752 112.776 6.7C112.776 7.636 112.602 8.506 112.254 9.31C111.906 10.102 111.42 10.792 110.796 11.38C110.184 11.956 109.458 12.406 108.618 12.73C107.79 13.054 106.884 13.216 105.9 13.216ZM105.882 10.732C106.446 10.732 106.962 10.636 107.43 10.444C107.91 10.252 108.33 9.976 108.69 9.616C109.05 9.256 109.326 8.83 109.518 8.338C109.722 7.846 109.824 7.3 109.824 6.7C109.824 6.1 109.722 5.554 109.518 5.062C109.326 4.57 109.05 4.144 108.69 3.784C108.342 3.424 107.928 3.148 107.448 2.956C106.968 2.764 106.446 2.668 105.882 2.668C105.318 2.668 104.796 2.764 104.316 2.956C103.848 3.148 103.434 3.424 103.074 3.784C102.714 4.144 102.432 4.57 102.228 5.062C102.036 5.554 101.94 6.1 101.94 6.7C101.94 7.288 102.036 7.834 102.228 8.338C102.432 8.83 102.708 9.256 103.056 9.616C103.416 9.976 103.836 10.252 104.316 10.444C104.796 10.636 105.318 10.732 105.882 10.732ZM120.458 13.216C119.486 13.216 118.58 13.06 117.74 12.748C116.912 12.424 116.192 11.968 115.58 11.38C114.968 10.792 114.488 10.102 114.14 9.31C113.804 8.518 113.636 7.648 113.636 6.7C113.636 5.752 113.804 4.882 114.14 4.09C114.488 3.298 114.968 2.608 115.58 2.02C116.204 1.432 116.93 0.981999 117.758 0.669999C118.586 0.345999 119.492 0.184 120.476 0.184C121.568 0.184 122.552 0.376 123.428 0.76C124.316 1.132 125.06 1.684 125.66 2.416L123.788 4.144C123.356 3.652 122.876 3.286 122.348 3.046C121.82 2.794 121.244 2.668 120.62 2.668C120.032 2.668 119.492 2.764 119 2.956C118.508 3.148 118.082 3.424 117.722 3.784C117.362 4.144 117.08 4.57 116.876 5.062C116.684 5.554 116.588 6.1 116.588 6.7C116.588 7.3 116.684 7.846 116.876 8.338C117.08 8.83 117.362 9.256 117.722 9.616C118.082 9.976 118.508 10.252 119 10.444C119.492 10.636 120.032 10.732 120.62 10.732C121.244 10.732 121.82 10.612 122.348 10.372C122.876 10.12 123.356 9.742 123.788 9.238L125.66 10.966C125.06 11.698 124.316 12.256 123.428 12.64C122.552 13.024 121.562 13.216 120.458 13.216ZM132.945 13.216C131.949 13.216 131.025 13.054 130.173 12.73C129.333 12.406 128.601 11.95 127.977 11.362C127.365 10.774 126.885 10.084 126.537 9.292C126.201 8.5 126.033 7.636 126.033 6.7C126.033 5.764 126.201 4.9 126.537 4.108C126.885 3.316 127.371 2.626 127.995 2.038C128.619 1.45 129.351 0.993999 130.191 0.669999C131.031 0.345999 131.943 0.184 132.927 0.184C133.923 0.184 134.835 0.345999 135.663 0.669999C136.503 0.993999 137.229 1.45 137.841 2.038C138.465 2.626 138.951 3.316 139.299 4.108C139.647 4.888 139.821 5.752 139.821 6.7C139.821 7.636 139.647 8.506 139.299 9.31C138.951 10.102 138.465 10.792 137.841 11.38C137.229 11.956 136.503 12.406 135.663 12.73C134.835 13.054 133.929 13.216 132.945 13.216ZM132.927 10.732C133.491 10.732 134.007 10.636 134.475 10.444C134.955 10.252 135.375 9.976 135.735 9.616C136.095 9.256 136.371 8.83 136.563 8.338C136.767 7.846 136.869 7.3 136.869 6.7C136.869 6.1 136.767 5.554 136.563 5.062C136.371 4.57 136.095 4.144 135.735 3.784C135.387 3.424 134.973 3.148 134.493 2.956C134.013 2.764 133.491 2.668 132.927 2.668C132.363 2.668 131.841 2.764 131.361 2.956C130.893 3.148 130.479 3.424 130.119 3.784C129.759 4.144 129.477 4.57 129.273 5.062C129.081 5.554 128.985 6.1 128.985 6.7C128.985 7.288 129.081 7.834 129.273 8.338C129.477 8.83 129.753 9.256 130.101 9.616C130.461 9.976 130.881 10.252 131.361 10.444C131.841 10.636 132.363 10.732 132.927 10.732ZM141.473 13V0.399999H144.389V10.624H150.707V13H141.473ZM150.211 13L155.827 0.399999H158.707L164.341 13H161.281L156.673 1.876H157.825L153.199 13H150.211ZM153.019 10.3L153.793 8.086H160.273L161.065 10.3H153.019ZM167.085 13V2.776H163.053V0.399999H174.033V2.776H170.001V13H167.085ZM177.744 5.476H183.81V7.744H177.744V5.476ZM177.96 10.66H184.818V13H175.062V0.399999H184.584V2.74H177.96V10.66Z" fill="#111111"/>
</svg>
