<!-- Generated by IcoMoon.io -->
<svg version="1.1" xmlns="http://www.w3.org/2000/svg" width="1792" height="1024" viewBox="0 0 1792 1024">
<title></title>
<g id="icomoon-ignore">
</g>
<path d="M979.309 676.288c-10.908 10.998-23.885 19.727-38.184 25.683s-29.635 9.024-45.124 9.024-30.825-3.067-45.124-9.024c-14.298-5.956-27.276-14.685-38.182-25.683l-537.388-538.56c-10.908-10.997-23.885-19.726-38.184-25.683-14.298-5.957-29.633-9.024-45.123-9.024-15.491 0-30.826 3.067-45.124 9.024-14.299 5.957-27.276 14.686-38.184 25.683-21.853 21.984-34.12 51.722-34.12 82.72s12.266 60.736 34.12 82.72l538.561 538.56c65.999 65.919 155.466 102.944 248.746 102.944 93.281 0 182.747-37.025 248.748-102.944l538.566-538.56c21.67-21.855 33.894-51.352 34.022-82.132 0.090-15.442-2.867-30.751-8.717-45.046-5.837-14.295-14.438-27.297-25.306-38.262-10.918-10.997-23.885-19.726-38.195-25.683-14.298-5.957-29.632-9.024-45.12-9.024s-30.822 3.067-45.12 9.024c-14.298 5.957-27.277 14.686-38.182 25.683l-537.389 538.56z"></path>
</svg>
